<?xml version="1.0" standalone="no"?>
<!DOCTYPE svg PUBLIC "-//W3C//DTD SVG 20010904//EN"
 "http://www.w3.org/TR/2001/REC-SVG-20010904/DTD/svg10.dtd">
<svg version="1.0" xmlns="http://www.w3.org/2000/svg"
 width="261.000000pt" height="157.000000pt" viewBox="0 0 261.000000 157.000000"
 preserveAspectRatio="xMidYMid meet">

<g transform="translate(0.000000,157.000000) scale(0.100000,-0.100000)"
fill="#000000" stroke="none">
<path d="M1075 1140 c-109 -12 -263 -43 -368 -77 -92 -29 -98 -38 -12 -17 220
52 289 59 590 58 274 0 298 -2 430 -27 77 -15 149 -30 160 -33 15 -4 17 -3 5
4 -22 14 -202 59 -305 77 -110 19 -379 27 -500 15z"/>
<path d="M365 1030 c-22 -11 -50 -20 -63 -20 -30 0 -72 -43 -72 -72 0 -13 -9
-40 -20 -61 -22 -40 -26 -67 -10 -67 6 0 8 -10 4 -24 -5 -22 -8 -92 -5 -123 2
-19 41 -16 48 3 3 8 0 26 -7 40 -19 35 7 62 54 56 29 -3 36 -9 41 -34 4 -18 2
-40 -5 -54 -7 -12 -10 -29 -7 -37 6 -17 88 -48 134 -51 43 -3 47 -9 45 -55 -3
-50 11 -59 44 -26 27 27 26 53 -3 87 -14 15 -12 18 23 33 39 16 54 30 54 53 0
15 -42 16 -58 0 -16 -16 -16 5 0 31 9 14 8 26 -2 50 -14 35 -51 42 -81 15 -17
-15 -18 -13 -29 26 -6 22 -8 51 -4 63 10 35 34 68 45 62 16 -11 49 6 49 24 0
15 -12 19 -66 25 -64 7 -101 -4 -89 -25 3 -4 -1 -23 -8 -42 -15 -35 -64 -64
-91 -54 -7 3 -23 -1 -35 -9 -19 -14 -21 -13 -21 5 0 23 15 30 55 24 44 -7 77
23 81 73 1 21 2 42 3 47 1 4 17 7 37 7 31 0 35 3 32 22 -4 29 -23 31 -73 8z
m155 -381 c0 -18 -2 -19 -15 -9 -15 12 -12 30 6 30 5 0 9 -10 9 -21z"/>
<path d="M2096 1018 c-11 -6 -34 -11 -52 -10 -22 1 -34 -4 -39 -16 -8 -22 23
-45 52 -37 42 10 76 -81 57 -152 -7 -26 -26 -30 -44 -8 -30 36 -80 1 -80 -56
0 -19 5 -40 12 -47 16 -16 2 -28 -17 -12 -16 13 -65 6 -65 -9 0 -15 60 -61 80
-61 27 0 33 -17 16 -42 -23 -33 -20 -74 6 -92 38 -27 48 -20 48 33 0 54 11 68
55 68 17 1 56 12 88 27 59 27 70 45 43 75 -10 11 -13 30 -9 62 l5 46 46 -2
c57 -2 80 -28 61 -68 -16 -34 -5 -59 23 -55 19 2 24 10 26 48 5 63 -12 110
-52 150 -32 30 -38 32 -61 22 -69 -32 -128 -1 -127 66 0 23 3 46 7 51 6 11
-25 31 -47 31 -7 0 -22 -6 -32 -12z m-26 -362 c0 -8 -4 -18 -10 -21 -5 -3 -10
3 -10 14 0 12 5 21 10 21 6 0 10 -6 10 -14z"/>
<path d="M2217 1018 c-9 -7 -21 -26 -27 -42 -9 -25 -8 -34 8 -55 25 -34 61
-37 95 -11 50 40 27 120 -34 120 -14 0 -33 -6 -42 -12z"/>
<path d="M843 890 c24 -15 22 -26 -17 -73 -18 -23 -37 -52 -40 -64 -11 -35
-62 -84 -80 -77 -18 7 -22 34 -5 34 6 0 9 8 7 18 -4 22 -28 22 -42 0 -13 -22
0 -48 34 -65 31 -16 75 1 105 42 19 25 31 31 50 28 31 -6 75 36 75 71 0 28
-29 80 -45 82 -6 1 -21 5 -35 8 -21 6 -22 5 -7 -4z m47 -72 c0 -30 -23 -68
-42 -68 -12 0 -10 23 7 64 19 44 35 47 35 4z"/>
<path d="M1378 870 c-16 -12 -28 -26 -28 -32 0 -6 8 -4 18 5 23 21 64 22 100
3 32 -16 106 -16 123 1 20 20 -1 33 -49 32 -26 -1 -67 2 -92 6 -38 6 -49 3
-72 -15z"/>
<path d="M968 803 c-47 -75 -58 -131 -23 -125 29 5 49 23 35 32 -8 5 -2 26 19
68 56 110 34 128 -31 25z"/>
<path d="M1136 811 c-4 -6 -20 -11 -35 -11 -29 0 -40 -7 -84 -56 -27 -30 -27
-31 -9 -54 16 -20 21 -21 41 -11 16 9 26 9 35 2 9 -7 19 -6 35 6 16 11 19 18
11 23 -9 5 -6 19 10 50 14 27 18 46 12 52 -6 6 -12 6 -16 -1z m-26 -43 c-1
-17 -35 -58 -49 -58 -16 0 -14 8 10 41 21 30 39 38 39 17z"/>
<path d="M1408 790 c-2 -16 -1 -27 3 -25 11 7 18 44 9 50 -4 3 -10 -8 -12 -25z"/>
<path d="M1458 803 c-9 -10 -26 -38 -38 -63 -29 -58 -49 -80 -72 -80 -16 0
-18 5 -12 35 6 32 4 35 -18 35 -34 0 -39 -8 -25 -38 16 -37 37 -51 74 -52 50
0 80 34 97 110 8 36 13 66 12 68 -2 1 -10 -6 -18 -15z"/>
<path d="M1258 763 c-3 -27 -3 -50 -1 -52 6 -9 34 72 29 85 -11 28 -24 13 -28
-33z"/>
<path d="M1506 768 c-14 -18 -21 -34 -16 -36 6 -2 7 -14 4 -27 -3 -12 -2 -25
4 -28 10 -7 86 42 78 50 -3 3 -13 0 -22 -8 -16 -13 -17 -11 -10 16 11 51 11
58 0 62 -7 2 -23 -11 -38 -29z"/>
<path d="M1616 781 c-10 -11 -19 -30 -21 -43 -1 -12 -6 -31 -10 -40 -12 -29 8
-21 45 17 19 19 38 35 43 35 5 0 -1 -16 -13 -35 -29 -47 -7 -46 43 3 40 38 42
35 20 -24 -8 -21 16 -25 42 -8 19 13 23 19 13 25 -10 6 -9 15 4 42 20 42 13
53 -20 31 -22 -14 -25 -14 -36 1 -11 15 -14 15 -38 -4 -31 -25 -38 -26 -38 -7
0 24 -16 27 -34 7z"/>
<path d="M1855 782 c-11 -9 -29 -27 -39 -39 -18 -21 -18 -24 -2 -48 19 -29 34
-31 62 -9 10 8 13 13 7 9 -7 -3 -18 -3 -24 1 -7 4 3 18 25 36 42 34 48 68 14
68 -13 0 -32 -8 -43 -18z m45 -11 c0 -5 -7 -14 -15 -21 -12 -10 -15 -10 -15 2
0 8 3 18 7 21 9 10 23 9 23 -2z"/>
<path d="M1199 774 c-7 -9 -14 -35 -14 -58 -2 -51 -10 -83 -27 -104 -11 -13
-10 -14 7 -4 27 14 102 92 89 92 -5 0 -16 -6 -22 -12 -10 -10 -11 -1 -6 45 7
59 -1 72 -27 41z"/>
<path d="M730 773 c0 -6 8 -17 18 -24 16 -13 16 -13 2 6 -8 11 -16 22 -17 24
-2 2 -3 0 -3 -6z"/>
<path d="M1103 629 c-6 -6 -9 -18 -6 -25 8 -22 18 -16 18 11 0 14 0 25 0 25
-1 0 -6 -5 -12 -11z"/>
<path d="M278 541 c127 -111 409 -207 712 -242 153 -17 480 -15 630 5 216 29
455 101 583 177 81 48 85 62 6 19 -118 -64 -330 -126 -533 -158 -160 -24 -616
-24 -773 1 -244 39 -440 102 -584 187 l-84 50 43 -39z"/>
</g>
</svg>
